<svg viewBox="0 0 560 300" role="img" aria-label="Os tempos por caractere posicionam cada tópico na linha do tempo do áudio" xmlns="http://www.w3.org/2000/svg" fill="none" stroke="currentColor" stroke-width="1.5"><g class="passo" data-passo="0"><rect x="24" y="32" width="512" height="44" rx="5"/><text x="280.0" y="59.0" text-anchor="middle" font-size="14" fill="currentColor" stroke="none">roteiro: slide, tópico, narração</text></g><g class="passo" data-passo="1"><line x1="280" y1="76" x2="280" y2="106"/><polygon points="280,106 275.5,98 284.5,98" fill="currentColor" stroke="none"/><line x1="40" y1="150" x2="520" y2="150"/><line x1="40" y1="142" x2="40" y2="158"/><line x1="200" y1="142" x2="200" y2="158"/><line x1="360" y1="142" x2="360" y2="158"/><line x1="520" y1="142" x2="520" y2="158"/><text x="40" y="176" text-anchor="start" font-size="11" fill="currentColor" stroke="none" opacity="0.8">0:00</text><text x="200" y="176" text-anchor="middle" font-size="11" fill="currentColor" stroke="none" opacity="0.8">tópico 2</text><text x="360" y="176" text-anchor="middle" font-size="11" fill="currentColor" stroke="none" opacity="0.8">tópico 3</text><text x="280" y="126" text-anchor="middle" font-size="11.5" fill="currentColor" stroke="none" opacity="0.8">tempo de cada caractere falado</text></g><g class="passo" data-passo="2"><rect x="24" y="212" width="240" height="60" rx="5"/><text x="144.0" y="238.0" text-anchor="middle" font-size="14" fill="currentColor" stroke="none">slides</text><text x="144.0" y="257.0" text-anchor="middle" font-size="11.5" fill="currentColor" stroke="none" opacity=".72">acendem na hora certa</text><rect x="296" y="212" width="240" height="60" rx="5"/><text x="416.0" y="238.0" text-anchor="middle" font-size="14" fill="currentColor" stroke="none">áudio embutido</text><text x="416.0" y="257.0" text-anchor="middle" font-size="11.5" fill="currentColor" stroke="none" opacity=".72">a página é o arquivo</text></g></svg>