<svg viewBox="0 0 560 300" role="img" aria-label="O script lê o arquivo, pede a fala à ElevenLabs e toca o áudio" xmlns="http://www.w3.org/2000/svg" fill="none" stroke="currentColor" stroke-width="1.5"><g class="passo" data-passo="0"><rect x="24" y="60" width="132" height="76" rx="5"/><text x="90.0" y="94.0" text-anchor="middle" font-size="14" fill="currentColor" stroke="none">seu arquivo</text><text x="90.0" y="113.0" text-anchor="middle" font-size="11.5" fill="currentColor" stroke="none" opacity=".72">md · txt · html</text><line x1="156" y1="98" x2="212" y2="98"/><polygon points="212,98 204,93.5 204,102.5" fill="currentColor" stroke="none"/><text x="184.0" y="89" text-anchor="middle" font-size="11" fill="currentColor" stroke="none" opacity=".8">lê</text></g><g class="passo" data-passo="1"><rect x="212" y="52" width="142" height="92" rx="5"/><text x="283.0" y="94.0" text-anchor="middle" font-size="14" fill="currentColor" stroke="none">speak.py</text><text x="283.0" y="113.0" text-anchor="middle" font-size="11.5" fill="currentColor" stroke="none" opacity=".72">só a stdlib</text><line x1="354" y1="98" x2="410" y2="98"/><polygon points="410,98 402,93.5 402,102.5" fill="currentColor" stroke="none"/><text x="382.0" y="89" text-anchor="middle" font-size="11" fill="currentColor" stroke="none" opacity=".8">sintetiza</text><rect x="410" y="60" width="126" height="76" rx="5"/><text x="473.0" y="94.0" text-anchor="middle" font-size="14" fill="currentColor" stroke="none">ElevenLabs</text><text x="473.0" y="113.0" text-anchor="middle" font-size="11.5" fill="currentColor" stroke="none" opacity=".72">voz Guga</text></g><g class="passo" data-passo="2"><rect x="212" y="200" width="142" height="56" rx="5" stroke-dasharray="5 4"/><text x="283.0" y="224.0" text-anchor="middle" font-size="14" fill="currentColor" stroke="none">você pede</text><text x="283.0" y="243.0" text-anchor="middle" font-size="11.5" fill="currentColor" stroke="none" opacity=".72">“lê isso pra mim”</text><line x1="283" y1="200" x2="283" y2="152"/><polygon points="283,152 278.5,160 287.5,160" fill="currentColor" stroke="none"/></g></svg>